<?xml version="1.0" encoding="UTF-8" standalone="no"?>
<!-- Created with Inkscape (http://www.inkscape.org/) -->
<svg xmlns:dc="http://purl.org/dc/elements/1.1/" xmlns:cc="http://creativecommons.org/ns#" xmlns:rdf="http://www.w3.org/1999/02/22-rdf-syntax-ns#" xmlns:svg="http://www.w3.org/2000/svg" xmlns="http://www.w3.org/2000/svg" xmlns:xlink="http://www.w3.org/1999/xlink" xmlns:sodipodi="http://sodipodi.sourceforge.net/DTD/sodipodi-0.dtd" xmlns:inkscape="http://www.inkscape.org/namespaces/inkscape" version="1.0" width="350" height="350" id="svg2047" sodipodi:version="0.32" inkscape:version="0.92.4 (5da689c313, 2019-01-14)" sodipodi:docname="Wiktionary_small.svg" inkscape:output_extension="org.inkscape.output.svg.inkscape">
  <metadata id="metadata106">
    <rdf:RDF>
      <cc:Work rdf:about="">
        <dc:format>image/svg+xml</dc:format>
        <dc:type rdf:resource="http://purl.org/dc/dcmitype/StillImage"/>
        <dc:title/>
      </cc:Work>
    </rdf:RDF>
  </metadata>
  <sodipodi:namedview inkscape:window-height="705" inkscape:window-width="1366" inkscape:pageshadow="2" inkscape:pageopacity="0.0" guidetolerance="10.0" gridtolerance="10.0" objecttolerance="10.0" borderopacity="1.0" bordercolor="#666666" pagecolor="#8f8f8f" id="base" width="350px" height="350px" inkscape:showpageshadow="false" inkscape:zoom="1.52331" inkscape:cx="258.86556" inkscape:cy="187.97191" inkscape:window-x="-8" inkscape:window-y="-8" inkscape:current-layer="g3354" showgrid="false" inkscape:pagecheckerboard="true" inkscape:window-maximized="1"/>
  <defs id="defs3">
    <linearGradient id="linearGradient3446">
      <stop style="stop-color:#f4e3ca;stop-opacity:1" offset="0" id="stop3448"/>
      <stop style="stop-color:#e9cc9d;stop-opacity:1" offset="1" id="stop3450"/>
    </linearGradient>
    <linearGradient id="linearGradient2917">
      <stop style="stop-color:#0036d4;stop-opacity:1;" offset="0" id="stop2919"/>
      <stop style="stop-color:#010057;stop-opacity:1;" offset="1" id="stop2921"/>
    </linearGradient>
    <linearGradient inkscape:collect="always" xlink:href="#linearGradient2917" id="linearGradient2335" gradientUnits="userSpaceOnUse" gradientTransform="matrix(2.0490606,-0.5064396,0.5798578,2.0796157,-647.12897,-304.35318)" x1="370.37161" y1="344.23257" x2="283.22876" y2="259.17615"/>
    <linearGradient inkscape:collect="always" xlink:href="#linearGradient3446" id="linearGradient2362" gradientUnits="userSpaceOnUse" gradientTransform="matrix(3.0529998,6.2279176e-8,4.5126126e-8,3.0530007,-2383.4084,666.99616)" x1="870.85938" y1="-140.09358" x2="795.29053" y2="-169.7764"/>
  </defs>
  <g id="g3354" transform="matrix(1.0365493,0,0,1.0365493,-17.701257,-6.5981711)">
    <rect id="rect3418" style="fill:none;fill-opacity:1;fill-rule:nonzero;stroke:#8f8f8f;stroke-width:3.30574679;stroke-linecap:round;stroke-linejoin:round;stroke-miterlimit:4;stroke-dasharray:none;stroke-dashoffset:0;stroke-opacity:0.95454544" transform="matrix(0.9870852,-0.1601962,0.1691987,0.985582,0,0)" y="75.558617" x="13.211552" ry="37.487125" rx="27.963432" height="273.33887" width="274.39041"/>
    <path style="fill:#8f8f8f;fill-opacity:1;fill-rule:nonzero;stroke:#8f8f8f;stroke-width:3.42649484;stroke-linecap:round;stroke-linejoin:round;stroke-miterlimit:4;stroke-dasharray:none;stroke-dashoffset:0;stroke-opacity:1" d="M 267.34961 6.7207031 C 266.36309 6.7468977 265.37347 6.8392237 264.38281 7 L 40.859375 43.275391 C 25.008819 45.847812 15.179942 65.000271 18.822266 86.216797 L 53.611328 288.86719 C 57.253652 310.08371 72.946319 325.09195 88.796875 322.51953 L 312.32031 286.24414 C 328.17087 283.67172 337.99975 264.52121 334.35742 243.30469 L 299.56836 40.654297 C 296.15368 20.763804 282.14747 6.3277852 267.34961 6.7207031 z M 287.45117 60.546875 L 288.20703 65.658203 C 283.56623 66.332132 279.93133 67.754536 277.30078 69.923828 C 274.66994 72.093181 272.39474 75.763491 270.47656 80.933594 C 269.20196 84.411576 267.58178 92.500169 265.61523 105.20312 L 238.30469 263.39844 L 233.05078 264.16016 L 174.75195 150.28906 L 152.14648 275.91016 L 147.41992 276.59766 L 71.480469 128.74219 C 65.823982 117.71108 62.313223 111.21209 60.949219 109.24609 C 58.680409 106.00113 55.911489 103.74573 52.638672 102.48047 C 49.365856 101.21555 45.144284 100.95883 39.978516 101.70898 L 39.222656 96.597656 L 105.1543 87.023438 L 105.91016 92.132812 L 102.75977 92.591797 C 98.118937 93.265799 94.736078 94.885165 92.611328 97.451172 C 90.486682 100.01765 89.655668 102.86697 90.119141 105.99805 C 90.595632 109.2213 93.618255 116.35461 99.1875 127.39844 L 149.80469 227.42969 L 166.13477 133.76172 L 158.55273 118.77734 L 152.49023 106.81641 C 149.9703 102.47877 147.31178 98.725709 144.51758 95.556641 C 143.12056 93.972322 141.50273 92.703599 139.66211 91.748047 C 137.22806 90.408386 134.86236 89.528676 132.56445 89.109375 C 130.81922 88.798762 128.15038 88.904357 124.56055 89.425781 L 123.80469 84.314453 L 193.15039 74.242188 L 193.90625 79.353516 L 189.17969 80.041016 C 184.27633 80.753147 180.8499 82.379295 178.90039 84.919922 C 176.9506 87.46096 176.25374 90.61916 176.8125 94.394531 C 177.50691 99.091377 180.69083 107.00149 186.36133 118.125 L 235.56836 214.97266 L 254.18945 106.86328 C 256.35258 94.884408 257.10674 86.684493 256.45312 82.263672 C 256.13955 80.145897 255.21176 78.259047 253.66992 76.601562 C 252.12793 74.944145 250.3397 73.88675 248.30469 73.429688 C 244.78658 72.623637 240.35633 72.607204 235.01562 73.382812 L 234.25977 68.273438 L 287.45117 60.546875 z " transform="matrix(0.96473945,0,0,0.96473945,17.077101,6.3655159)" id="rect3436"/>
  </g>
</svg>